<?xml version="1.0" standalone="no"?>
<!DOCTYPE svg PUBLIC "-//W3C//DTD SVG 20010904//EN"
 "http://www.w3.org/TR/2001/REC-SVG-20010904/DTD/svg10.dtd">
<svg version="1.0" xmlns="http://www.w3.org/2000/svg"
 width="512.000000pt" height="512.000000pt" viewBox="0 0 512.000000 512.000000"
 preserveAspectRatio="xMidYMid meet">
<metadata>
Created by potrace 1.11, written by Peter Selinger 2001-2013
</metadata>
<g transform="translate(0.000000,512.000000) scale(0.100000,-0.100000)"
fill="#000000" stroke="none">
<path d="M2375 5039 c-160 -23 -206 -31 -280 -49 -294 -71 -585 -216 -838
-417 -39 -32 -122 -108 -182 -169 -307 -309 -526 -703 -639 -1152 -15 -56 -35
-117 -47 -136 -17 -29 -18 -38 -8 -54 10 -15 10 -35 1 -90 -7 -39 -12 -89 -12
-111 0 -41 0 -41 38 -42 20 0 32 -3 25 -5 -7 -3 -9 -12 -7 -19 3 -8 -7 -31
-23 -51 -26 -35 -28 -43 -28 -133 0 -108 18 -177 90 -346 29 -69 52 -147 74
-250 17 -82 47 -202 67 -265 28 -87 34 -118 25 -131 -8 -14 3 -45 56 -153 37
-75 72 -136 78 -136 6 0 26 -28 45 -63 81 -148 175 -281 309 -435 45 -52 97
-125 116 -164 70 -138 177 -273 245 -307 63 -32 89 -34 156 -10 l63 22 96 -42
c497 -219 1013 -219 1510 0 l95 42 49 -16 c56 -18 113 -10 168 24 43 27 115
108 161 181 77 124 107 165 163 225 128 138 269 331 345 472 16 30 36 56 44
58 9 2 46 65 84 140 59 118 65 138 53 150 -12 13 -10 29 20 121 19 59 50 173
68 254 20 84 46 171 63 205 119 236 164 434 118 522 -10 18 -15 42 -13 52 4
15 -4 24 -31 39 l-37 19 58 1 c66 0 64 -8 45 132 -10 76 -10 91 3 98 12 8 11
16 -8 52 -13 24 -41 108 -63 188 -128 469 -338 832 -667 1150 -303 294 -656
484 -1049 565 -193 40 -454 55 -599 34z m-770 -2151 c22 -3 49 -2 60 2 11 4
33 3 48 -3 20 -6 32 -6 40 2 20 20 63 10 139 -30 10 -5 33 -9 52 -9 22 0 36
-6 40 -16 3 -9 12 -14 19 -11 7 3 21 -1 32 -9 10 -8 29 -14 42 -14 13 0 23 -4
23 -8 0 -5 11 -15 25 -22 14 -7 25 -19 25 -27 0 -7 6 -13 13 -13 25 0 67 -25
63 -37 -3 -7 4 -15 15 -18 10 -4 19 -14 19 -23 0 -19 39 -62 57 -62 7 0 13 -6
13 -14 0 -7 7 -19 15 -26 8 -7 13 -15 10 -19 -2 -4 7 -19 21 -34 13 -14 24
-30 24 -35 0 -20 26 -60 44 -68 17 -8 20 -19 21 -74 1 -36 9 -90 19 -120 18
-60 24 -286 7 -318 -4 -9 -11 -33 -15 -53 -3 -20 -15 -54 -26 -77 -11 -23 -20
-51 -20 -62 0 -14 -8 -24 -20 -27 -22 -6 -70 -98 -70 -133 0 -13 -14 -26 -45
-40 -35 -16 -47 -27 -51 -49 -5 -25 -12 -30 -48 -35 -34 -5 -53 -17 -95 -61
-35 -36 -62 -55 -77 -55 -13 0 -28 -9 -34 -20 -8 -15 -17 -19 -35 -14 -17 4
-26 0 -35 -16 -9 -17 -14 -19 -25 -10 -10 9 -19 8 -35 0 -16 -8 -25 -8 -35 0
-9 7 -15 8 -20 0 -4 -6 -46 -10 -104 -10 -57 0 -102 -5 -108 -11 -8 -8 -18 -6
-35 5 -13 9 -58 20 -99 25 -108 14 -129 21 -179 58 -80 59 -149 103 -162 103
-21 1 -67 46 -74 74 -3 14 -13 26 -20 26 -14 0 -35 39 -28 51 2 4 -3 12 -11
19 -8 7 -15 19 -15 26 0 8 -7 14 -15 14 -8 0 -12 6 -9 14 3 7 -2 16 -11 20
-10 3 -15 13 -12 20 3 8 0 17 -7 19 -8 3 -16 18 -19 34 -3 15 -20 69 -38 118
-28 78 -33 106 -36 210 -4 95 -1 129 12 165 18 51 49 165 60 224 5 29 9 36 16
25 7 -12 9 -12 10 1 1 8 1 18 0 23 0 4 6 7 14 7 8 0 15 7 15 16 0 8 4 13 8 10
9 -6 42 29 42 44 0 6 5 10 10 10 6 0 10 9 10 21 0 11 5 17 10 14 6 -3 10 3 10
14 0 12 6 21 13 21 23 0 89 61 82 77 -3 10 -1 13 8 10 8 -3 25 5 39 18 13 12
34 25 45 29 11 4 33 18 47 31 22 20 31 23 46 15 16 -8 22 -6 32 10 8 12 24 20
39 20 15 0 32 7 39 15 7 8 27 15 46 15 18 0 39 6 46 14 8 8 19 11 28 6 8 -4
33 -10 55 -12z m1750 0 c22 -3 49 -2 60 2 11 4 33 3 48 -3 20 -6 32 -6 40 2
20 20 63 10 139 -30 10 -5 33 -9 52 -9 22 0 36 -6 40 -16 3 -9 12 -14 19 -11
7 3 21 -1 32 -9 10 -8 29 -14 42 -14 13 0 23 -4 23 -8 0 -5 11 -15 25 -22 14
-7 25 -19 25 -27 0 -7 6 -13 13 -13 25 0 67 -25 63 -37 -3 -7 4 -15 15 -18 10
-4 19 -14 19 -23 0 -19 39 -62 57 -62 7 0 13 -6 13 -14 0 -7 7 -19 15 -26 8
-7 13 -15 10 -19 -2 -4 7 -19 21 -34 13 -14 24 -30 24 -35 0 -20 26 -60 44
-68 17 -8 20 -19 21 -74 1 -36 9 -90 19 -120 18 -60 24 -286 7 -318 -4 -9 -11
-33 -15 -53 -3 -20 -15 -54 -26 -77 -11 -23 -20 -51 -20 -62 0 -14 -8 -24 -20
-27 -22 -6 -70 -98 -70 -133 0 -13 -14 -26 -45 -40 -35 -16 -47 -27 -51 -49
-5 -25 -12 -30 -48 -35 -34 -5 -53 -17 -95 -61 -35 -36 -62 -55 -77 -55 -13 0
-28 -9 -34 -20 -8 -15 -17 -19 -35 -14 -17 4 -26 0 -35 -16 -9 -17 -14 -19
-25 -10 -10 9 -19 8 -35 0 -16 -8 -25 -8 -35 0 -9 7 -15 8 -20 0 -4 -6 -46
-10 -104 -10 -57 0 -102 -5 -108 -11 -8 -8 -18 -6 -35 5 -13 9 -58 20 -99 25
-108 14 -129 21 -179 58 -80 59 -149 103 -162 103 -21 1 -67 46 -74 74 -3 14
-13 26 -20 26 -14 0 -35 39 -28 51 2 4 -3 12 -11 19 -8 7 -15 19 -15 26 0 8
-7 14 -15 14 -8 0 -12 6 -9 14 3 7 -2 16 -11 20 -10 3 -15 13 -12 20 3 8 -1
17 -9 20 -8 3 -14 15 -14 26 0 12 -4 19 -9 15 -6 -3 -13 11 -16 32 -3 21 -15
67 -27 103 -29 91 -37 286 -13 350 18 51 49 165 60 224 5 29 9 36 16 25 7 -12
9 -12 10 1 1 8 1 18 0 23 0 4 6 7 14 7 8 0 15 7 15 16 0 8 4 13 8 10 9 -6 42
29 42 44 0 6 5 10 10 10 6 0 10 9 10 21 0 11 5 17 10 14 6 -3 10 3 10 14 0 12
6 21 13 21 23 0 89 61 82 77 -3 10 -1 13 8 10 8 -3 25 5 39 18 13 12 34 25 45
29 11 4 33 18 47 31 22 20 31 23 46 15 16 -8 22 -6 32 10 8 12 24 20 39 20 15
0 32 7 39 15 7 8 27 15 46 15 18 0 39 6 46 14 8 8 19 11 28 6 8 -4 33 -10 55
-12z"/>
</g>
</svg>
