<svg xmlns="http://www.w3.org/2000/svg" viewBox="0 0 512 512">
  <path fill="var(--pjLogoLines, currentColor)" d="M231 9c-62.6 8.8-115.7 43-152.6 98.1-14 21-26.3 48.2-33 73.2-2.7 9.9-4.3 13.9-6.4 16.2-2.6 2.8-8 12.1-8 13.7 0 .4 1.8 1.1 4.1 1.4 3 .5 3.9 1 3.4 2.2-.3.8-.8 4.8-1.2 8.8l-.6 7.4H45l-3.5 5c-7.9 11.3-6.9 22.6 4.7 50.2 2.6 6.4 5.1 13.6 5.4 16 1.4 10.8 9.6 42.9 12 47 .8 1.3 3.1-.3 4.3-2.8 1.6-3.6 1.4-6-1.3-13.6-2-5.5-2.1-6.5-.7-5.6 1.8 1.1 5.1 10.9 5.1 15.1 0 3.5-1.6 6.7-4.3 8.8-2.1 1.7-2.1 1.7 3.8 14.2l5.9 12.6 4.1-.5c3.4-.5 4.5-.1 7.8 2.6 4.5 3.8 10.4 12.3 14 20.4 3.1 6.7 3.1 6.6 1.6 6.6-.5 0-2.2-2.6-3.6-5.8-7.8-17-20.2-27.9-21.1-18.4-.2 1.7.1 3.2.7 3.2.5 0 1.3 1 1.6 2.2.9 2.7 15.5 20.6 19.7 24.1 1.7 1.5 3.8 2.7 4.5 2.7.8 0 3.7 4.8 6.4 10.7 2.8 6 5.6 11.5 6.3 12.3.7.8 2.8 4.4 4.7 8 8.2 15.9 18.6 28.6 26.3 32.1 5.5 2.5 9.4 2.4 15.8-.6 6.6-3.1 7.9-3.1 10.8 0 1.3 1.4 3 2.5 3.7 2.5.8 0 2.4.7 3.7 1.5 3.5 2.3 19.7 7.9 16.6 5.7-10.4-7.3-19.9-15.1-28.1-23.2l-9.6-9.5 3.5 7.5c1.9 4.1 3.9 7.9 4.4 8.5.4.5.8 1.5.8 2.2 0 3.5-2.3.2-7.8-11.1l-6-12.4-4 .5c-9.6 1.3-14.5-5-32.7-42.2-17.4-35.6-23.1-44.7-30.1-48.3-1.8-.9-2.2-2.3-2.7-8.9-.7-10.3-3.5-17.9-15.8-43.4C60.8 282.5 58 275 58 267.6c0-4.2.4-5.3 3.4-8l3.3-3.2-5.8-12.2c-3.2-6.7-6.1-12.2-6.6-12.2-.4 0-2.1 1.1-3.6 2.5-2.3 2.2-2.7 2.3-2.7.8.1-2.2 4.5-5.6 6.7-5.1 2 .4 3.8 3.3 9.7 16l4.5 9.7-3.4 4.2c-6.1 7.2-4.8 13.1 10.4 44.8C86.2 330.4 89 338 89.7 348.3c.3 4.2 1 7.7 1.4 7.7 1.9 0 8.3 6.8 12.6 13.4 2.5 3.9 11 20.1 18.8 36.1 17.6 36.1 23 43.1 31 41.1l2.6-.7-2.1-2.7c-5.2-6.7-17.2-25.5-21.8-34.2-9-17.1-19.7-47.4-21.7-61.5l-.7-5 5.9 6c3.3 3.3 7.5 7.1 9.3 8.5 1.9 1.4 4.1 3.2 4.9 4.1.9.9 3.2 2.4 5.1 3.5 1.9 1 4.2 2.4 5 3 .8.6 5.1 2.6 9.5 4.4 7.8 3.3 8.3 3.4 23 3.4 15.9.1 19.1-.6 30.7-6.5 4.7-2.4 15.3-12.6 16.3-15.8.3-1.1 1-2.1 1.5-2.1.4 0 1.5-3.3 2.4-7.3.9-3.9 2.2-9 2.7-11.1 1.4-5.2 1.4-15.6-.1-23.7-.6-3.5-1.8-10.2-2.7-14.9-.8-4.7-2.1-9.5-2.9-10.7-.8-1.2-1.4-2.8-1.4-3.4 0-3.2-8.1-17.5-15.5-27.4-5.1-6.8-19.1-19.5-21.4-19.5-.6 0-1.1-.4-1.1-.9 0-1.6-16.3-9-24.4-11.1-4.4-1.1-10.4-2.1-13.5-2.1-9.2-.2 19.8-2.7 50.9-4.4 47.7-2.5 100.5-1.6 152.9 2.6l15.4 1.3-9.4 2.3c-9.2 2.2-25.9 9.6-25.9 11.4 0 .5-.5.9-1.1.9-2.3 0-16.3 12.7-21.4 19.5-7.4 9.9-15.5 24.2-15.5 27.4 0 .6-.6 2.2-1.4 3.4-.8 1.2-2.1 6-2.9 10.7-.9 4.7-2.1 11.4-2.7 14.9-1.5 8.1-1.5 18.5-.1 23.7.5 2.1 1.8 7.2 2.7 11.1.9 4 2 7.3 2.4 7.3.5 0 1.2 1 1.5 2.1 1 3.2 11.6 13.4 16.3 15.8 11.6 5.9 14.8 6.6 30.7 6.5 14.7 0 15.2-.1 23-3.4 4.4-1.8 8.7-3.8 9.5-4.4.8-.6 3.1-2 5-3 1.9-1.1 4.2-2.6 5.1-3.5.8-.9 3-2.7 4.9-4.1 4.2-3.2 16-15.2 16-16.3 0-.5 1.2-2.4 2.6-4.2 3.5-4.7 11-19.9 12.8-26 4.5-15.5 5-19.2 5-32.5 0-11.1-.4-14.8-2.3-21-1.3-4.1-2.5-8.5-2.8-9.8-.3-1.3-1.2-2.6-1.9-2.9-.8-.3-1.4-1.1-1.4-1.8 0-1.8-10.9-13.4-15.1-16.1-2-1.2-5.5-2.8-7.7-3.5-2.3-.7-4-1.4-3.8-1.6 1.3-1.3 71.8 11.4 71.7 12.9-.1.5-2.7 6-5.9 12.4-5.4 11-5.6 11.7-3.8 12.8 4.3 2.5 5.6 4.6 5.6 8.9 0 6.4-2.5 12.6-15.2 38.2-12.5 25.3-16.2 35.2-16.3 43.5 0 5.3-.1 5.6-4.1 8.1-6.3 4.1-13 14.7-29 45.8-15.4 29.8-18.5 34.9-24.4 39.5-3.5 2.7-4 2.8-11.3 1.4-1.4-.2-3.3 2.7-8.7 13-3.9 7.3-7 13.7-7 14.1 0 1.7 11.4 5.5 15.7 5.3 13.6-.6 26-16.5 51.1-65.2 15.9-30.9 19.4-34.8 28.7-32.6l3 .7 6.8-13.7 6.9-13.7-3.1-2.9c-2.5-2.4-3.1-3.7-3.1-7.2 0-2.4.5-5.8 1.1-7.7.9-3 10.7-24.3 18.9-41.4 8.8-18.2 13.1-31.6 13.3-41.3.1-8.3-.7-10.8-3.9-11.6-1.3-.4-4.1-2.2-6.2-4.1-5.4-4.8-11.3-6.8-31.2-10.4-9.6-1.8-24.7-4.5-33.5-6.1-8.9-1.7-17.4-3.1-19-3.1-3.2-.2 78.7-4.7 86.7-4.8l4.6-.1.7 6.7c.8 9.1 1.3 11.3 2.7 11.3.7 0 .9-2.5.4-8.4l-.7-8.3 4.1-.7c3.7-.6 4.1-.9 3.5-2.9-2-6.5-8.3-14.6-15.2-19.5-4.4-3-4.8-2.8-2 1 1.3 1.8 3.4 6.1 4.5 9.5l2.1 6.3h-2.2c-1.1 0-7.1-.5-13.1-1-16.4-1.5-53.8-2.8-130.1-4.5-53.7-1.1-82.5-1.2-137-.4-37.9.5-75.1 1.4-82.5 1.9-13.2 1-33 1.4-33 .7 0-1.9 3.9-7.3 6.8-9.5 2-1.5 4.3-3.2 5-3.9 1.2-1.1 6.2-3.7 20.2-10 3.6-1.7 9.7-4 13.5-5.2 3.9-1.3 8.8-2.9 11-3.6 7.1-2.4 28.7-7.3 41.5-9.5 6.9-1.2 13.9-2.6 15.7-3.1 4-1.2 23.6-3.5 41.8-4.9 7.7-.5 27.7-1 44.5-1 26.4 0 31.7.3 40 2 5.2 1.1 18.2 2.6 28.7 3.5 22.4 1.8 56.9 6.6 68.3 9.5 9.3 2.4 10 2.4 10 .7 0-2.2-18-7.2-40.5-11.2-4.9-.9-11.2-2-14-2.6-6.7-1.2-25.7-3.6-43.5-5.5-23.4-2.5-92.2-3-120-1-12.4.9-25.6 2.1-29.5 2.6-19.9 2.6-31.1 4.4-41.9 6.6-13.8 2.8-14.2 2.8-12.9 1.1.5-.6 2-3.9 3.3-7.2 3.3-8.7 14.2-30.4 20.1-40.2C154.8 92 174.7 68.8 191 55.5c25.9-21 55.9-33.6 84-35.1 38-2.1 80.2 12.3 115 39.4 10.7 8.4 27.8 25.3 35.9 35.7 7.4 9.3 7.1 9 7.1 8.2 0-.3-3.6-5.2-8-10.9-30.1-38.7-75.3-69.8-116.5-80.1-23.6-6-52.1-7.3-77.5-3.7zM122.5 222c-7.2 2.4-7.6 2.4-6.9.6.6-1.7 3-2.3 8.9-2.4 3.9-.1 3.9-.1-2 1.8zm31.7 17.3c8.8 4 15.8 10.5 21.3 19.7 3.9 6.4 3.9 6.6 4 17 0 9.7-.2 10.9-2.7 15.2-2.1 3.5-3.7 4.9-6.5 5.8-2.1.7-4.2 1.6-4.8 2.1-1.4 1.4-4.9 1.1-7.1-.6-1-.8-3.1-1.5-4.5-1.5-1.5 0-3.7-.8-5-1.8-1.3-1-4.3-2.6-6.7-3.7-4.3-1.9-13.2-11.6-16.5-18.3-1-1.7-2.4-4.6-3.3-6.3-3.9-7.4-3.6-17.3.6-22.7 2.2-2.8 10.5-7.7 14.3-8.5 4.1-.9 9.6.3 16.9 3.6zm223.7-.5c6.3 3.5 8.9 6.8 10 12.9 1 5.2.3 10.2-2.1 14.9-.8 1.6-2.3 4.5-3.3 6.4-3.6 6.9-12.3 16.6-16.7 18.5-2.4 1.1-5.4 2.7-6.7 3.7-1.3 1-3.5 1.8-5 1.8-1.4 0-3.5.7-4.5 1.5-2.2 1.7-5.7 2-7.1.6-.6-.5-2.7-1.4-4.8-2.1-2.8-.9-4.4-2.3-6.5-5.8-2.5-4.3-2.7-5.5-2.7-15.2.1-10.4.1-10.6 4-17 5.4-9.1 12.6-15.7 21.1-19.6 3.8-1.7 7.9-3.4 9-3.7 3.5-1 10.2.4 15.3 3.1z" />
  <path fill="var(--pjLogoLines, currentColor)" d="M217.4 415.4c-.6 1.6 1.7 7.4 4.2 10.7 6.5 8 17.2 15.3 25 16.9 11.1 2.3 23.4-1.7 33.1-10.8 4.7-4.3 10.3-13 10.3-15.9 0-2-1.8-2.4-4.2-.9-1.3.7-3.4 1.7-4.8 2.1-1.4.4-5.4 1.8-9 3.2-4.8 1.9-9 2.7-16 3.1-10.4.5-15-.6-30-6.7-8.8-3.6-7.9-3.4-8.6-1.7z" />
</svg>
